<?xml version="1.0" encoding="UTF-8"?>
<svg id="Layer_1" data-name="Layer 1" xmlns="http://www.w3.org/2000/svg" viewBox="0 0 800 800">
  <defs>
    <style>
      .cls-1 {
        fill: #d4a758;
      }

      .cls-2 {
        fill: none;
      }
    </style>
  </defs>
  <path class="cls-2" d="M0,0H800V800H0V0Z"/>
  <path class="cls-1" d="M400,66.67c90.57,0,101.87,.33,137.4,2,35.5,1.67,59.67,7.23,80.93,15.5,22,8.47,40.53,19.93,59.07,38.43,16.95,16.66,30.07,36.82,38.43,59.07,8.23,21.23,13.83,45.43,15.5,80.93,1.57,35.53,2,46.83,2,137.4s-.33,101.87-2,137.4c-1.67,35.5-7.27,59.67-15.5,80.93-8.34,22.26-21.46,42.42-38.43,59.07-16.67,16.94-36.82,30.06-59.07,38.43-21.23,8.23-45.43,13.83-80.93,15.5-35.53,1.57-46.83,2-137.4,2s-101.87-.33-137.4-2c-35.5-1.67-59.67-7.27-80.93-15.5-22.26-8.35-42.42-21.47-59.07-38.43-16.95-16.66-30.07-36.82-38.43-59.07-8.27-21.23-13.83-45.43-15.5-80.93-1.57-35.53-2-46.83-2-137.4s.33-101.87,2-137.4c1.67-35.53,7.23-59.67,15.5-80.93,8.34-22.26,21.46-42.42,38.43-59.07,16.66-16.96,36.81-30.08,59.07-38.43,21.27-8.27,45.4-13.83,80.93-15.5,35.53-1.57,46.83-2,137.4-2Zm0,166.67c-92.05,0-166.67,74.62-166.67,166.67s74.62,166.67,166.67,166.67,166.67-74.62,166.67-166.67-74.62-166.67-166.67-166.67Zm216.67-8.33c0-23.01-18.65-41.67-41.67-41.67s-41.67,18.65-41.67,41.67,18.65,41.67,41.67,41.67,41.67-18.65,41.67-41.67Zm-216.67,75c55.23,0,100,44.77,100,100s-44.77,100-100,100-100-44.77-100-100,44.77-100,100-100Z"/>
</svg>